# xmcd
#
# Track frame offsets:
#        150
#        35978
#        75897
#        118771
#        145512
#        197491
#        256066
#        280184
#        311225
#
# Disc length: 4765 seconds
#
# Revision: 1
# Processed by: cddbd v1.5.2PL0 Copyright (c) Steve Scherf et al.
# Submitted via: jack 3.1.1
#
DISCID=76129b09
DTITLE=Warren Haynes Band - Live at the Moody Theater CD1
DYEAR=2011
DGENRE=Blues
TTITLE0=Man in Motion
TTITLE1=River's Gonna Rise
TTITLE2=Sick of my Shadow
TTITLE3=A Friend to You
TTITLE4=On a Real Lonely Night
TTITLE5=Invisible
TTITLE6=Take a Bullet
TTITLE7=Hattiesburg Hustle
TTITLE8=Everyday will be Like a Holiday
EXTD=
EXTT0=
EXTT1=
EXTT2=
EXTT3=
EXTT4=
EXTT5=
EXTT6=
EXTT7=
EXTT8=
PLAYORDER=
